#!OML:ASF H:\LiuWeirdWalks\Patient Classification 1\Patient 1\Session 1\male.ASF
:FULLY-SPECIFIED
:DEGREES
128
root -1.61835 17.444 -26.148 9.8242 5.85129 -2.05613
lowerback 7.14985 0.621692 2.83611
upperback -2.53731 1.30379 2.99075
thorax -6.68577 0.592094 1.372
lowerneck -20.5735 -0.27033 7.00969
upperneck 21.0467 0.472514 -12.3189
head 10.1518 -0.692879 -5.53962
rclavicle 1.39149e-014 2.46493e-014
rhumerus -33.6364 -13.5948 -75.2078
rradius 19.1988
rwrist 1.59579
rhand -17.1464 -5.04665
rfingers 7.12502
rthumb 9.09408 -34.8306
lclavicle 1.39149e-014 2.46493e-014
lhumerus -41.8309 6.86635 83.4688
lradius 30.3599
lwrist 11.6698
lhand -16.1753 0.207606
lfingers 7.12502
lthumb 10.031 29.9486
rfemur 3.1932 -1.43946 26.9709
rtibia 19.1606
rfoot -18.0039 -30.6382
rtoes -8.46932
lfemur -42.4539 2.13972 -17.3498
ltibia 51.4759
lfoot -14.0546 9.98822
ltoes -18.2642
129
root -1.62211 17.4478 -26.0383 9.97388 6.03108 -2.08234
lowerback 7.36607 0.695466 2.98806
upperback -2.47723 1.42505 2.97606
thorax -6.74317 0.644469 1.25357
lowerneck -20.5045 -0.357424 7.0253
upperneck 20.7237 0.328575 -12.3456
head 10.0071 -0.757381 -5.55379
rclavicle -3.57812e-015 -4.13472e-014
rhumerus -33.1002 -13.1319 -75.661
rradius 19.7402
rwrist 0.590136
rhand -17.1343 -5.06052
rfingers 7.12502
rthumb 9.10572 -34.844
lclavicle -3.57812e-015 -4.13472e-014
lhumerus -42.2069 6.86851 83.1833
lradius 30.1641
lwrist 11.4023
lhand -15.9963 0.443686
lfingers 7.12502
lthumb 10.2038 30.1762
rfemur 3.68199 -1.32092 27.133
rtibia 18.5771
rfoot -17.3313 -30.8186
rtoes -8.9524
lfemur -43.1569 2.10858 -17.6712
ltibia 49.4221
lfoot -13.71 9.6206
ltoes -18.2276
130
root -1.62508 17.4508 -25.9269 10.1281 6.21822 -2.11982
lowerback 7.56076 0.748395 3.13242
upperback -2.40657 1.51777 2.97934
thorax -6.777 0.683788 1.16167
lowerneck -20.3876 -0.395499 7.08651
upperneck 20.322 0.242967 -12.4048
head 9.8331 -0.793364 -5.57485
rclavicle -8.64713e-015 -2.62396e-014
rhumerus -32.5122 -12.6025 -76.1167
rradius 20.3137
rwrist -0.434267
rhand -17.131 -5.0644
rfingers 7.12502
rthumb 9.10893 -34.8477
lclavicle -8.64713e-015 -2.62396e-014
lhumerus -42.5873 6.91123 82.8962
lradius 29.96
lwrist 11.1245
lhand -15.792 0.630146
lfingers 7.12502
lthumb 10.4008 30.3529
rfemur 4.12732 -1.2776 27.2998
rtibia 18.0703
rfoot -16.7171 -30.9521
rtoes -9.37257
lfemur -43.8085 2.00901 -17.9369
ltibia 47.2818
lfoot -13.2241 9.12693
ltoes -18.2138
131
root -1.62706 17.4529 -25.8133 10.2801 6.39746 -2.19252
lowerback 7.75516 0.79982 3.29663
upperback -2.35033 1.61243 2.99268
thorax -6.82535 0.723226 1.06866
lowerneck -20.2624 -0.438177 7.14545
upperneck 19.972 0.153322 -12.4518
head 9.67621 -0.830131 -5.5938
rclavicle -7.25564e-015 -8.74653e-015
rhumerus -31.9234 -12.0371 -76.5677
rradius 20.9275
rwrist -1.50622
rhand -17.1637 -5.10953
rfingers 7.12502
rthumb 9.07735 -34.8942
lclavicle -7.25564e-015 -8.74653e-015
lhumerus -42.9977 6.93873 82.6105
lradius 29.7309
lwrist 10.8683
lhand -15.5939 0.803832
lfingers 7.12502
lthumb 10.5919 30.5169
rfemur 4.52572 -1.30207 27.4897
rtibia 17.6614
rfoot -16.1016 -31.0342
rtoes -9.81055
lfemur -44.4063 1.86192 -18.1207
ltibia 45.0752
lfoot -12.5655 8.53372
ltoes -18.2492
132
root -1.6279 17.4543 -25.6988 10.4451 6.5433 -2.29211
lowerback 7.95878 0.845498 3.45358
upperback -2.24516 1.69938 3.03659
thorax -6.82767 0.760623 1.01233
lowerneck -20.2742 -0.455812 7.15047
upperneck 19.6099 0.0996073 -12.4635
head 9.5459 -0.853933 -5.58894
rclavicle -9.93923e-015 -2.8625e-014
rhumerus -31.1801 -11.4052 -77.0167
rradius 21.5633
rwrist -2.5852
rhand -17.2112 -5.13807
rfingers 7.12502
rthumb 9.03153 -34.9247
lclavicle -9.93923e-015 -2.8625e-014
lhumerus -43.2794 7.06977 82.3403
lradius 29.4431
lwrist 10.595
lhand -15.3953 0.884193
lfingers 7.12502
lthumb 10.7835 30.5874
rfemur 4.83975 -1.37992 27.6835
rtibia 17.3779
rfoot -15.4949 -31.0505
rtoes -10.2615
lfemur -44.9696 1.66842 -18.2219
ltibia 42.8261
lfoot -11.7457 7.89636
ltoes -18.4019
133
root -1.62883 17.4546 -25.5825 10.6004 6.65722 -2.44588
lowerback 8.1706 0.897629 3.62898
upperback -2.14398 1.79926 3.09637
thorax -6.83853 0.8039 0.960175
lowerneck -20.2245 -0.493845 7.14485
upperneck 19.2126 0.0172318 -12.4602
head 9.38933 -0.888344 -5.57738
rclavicle 3.8763e-014 2.78299e-014
rhumerus -30.4409 -10.7418 -77.4411
rradius 22.2326
rwrist -3.64162
rhand -17.2629 -5.1438
rfingers 7.12502
rthumb 8.98167 -34.9326
lclavicle 3.8763e-014 2.78299e-014
lhumerus -43.5618 7.21837 82.0569
lradius 29.1196
lwrist 10.3163
lhand -15.224 0.967102
lfingers 7.12502
lthumb 10.9487 30.6616
rfemur 5.07621 -1.46123 27.9271
rtibia 17.2527
rfoot -14.8984 -31.0508
rtoes -10.7497
lfemur -45.48 1.42817 -18.1922
ltibia 40.5611
lfoot -10.8157 7.28352
ltoes -18.5889
134
root -1.63034 17.4529 -25.4651 10.7458 6.76375 -2.64642
lowerback 8.41071 0.958491 3.81519
upperback -2.05379 1.91589 3.16877
thorax -6.87692 0.854843 0.912139
lowerneck -20.1244 -0.554186 7.1269
upperneck 18.7858 -0.0994937 -12.4253
head 9.21028 -0.934697 -5.55422
rclavicle 2.127e-014 -1.51076e-014
rhumerus -29.7334 -10.1156 -77.8061
rradius 22.9335
rwrist -4.64231
rhand -17.2934 -5.0471
rfingers 7.12502
rthumb 8.95225 -34.8372
lclavicle 2.127e-014 -1.51076e-014
lhumerus -43.8261 7.37656 81.7539
lradius 28.7203
lwrist 9.96524
lhand -15.0684 0.973267
lfingers 7.12502
lthumb 11.0988 30.6598
rfemur 5.22071 -1.55937 28.2186
rtibia 17.3116
rfoot -14.3155 -31.0412
rtoes -11.2882
lfemur -45.9469 1.12312 -18.0301
ltibia 38.3103
lfoot -9.90034 6.77157
ltoes -18.8312
135
root -1.63195 17.4496 -25.3464 10.8868 6.85633 -2.84181
lowerback 8.66517 1.01829 3.96689
upperback -1.96838 2.02955 3.24436
thorax -6.92934 0.905578 0.88648
lowerneck -20.0368 -0.618988 7.10117
upperneck 18.4002 -0.21777 -12.3868
head 9.04863 -0.982626 -5.53102
rclavicle 2.5842e-014 -9.54166e-015
rhumerus -29.0221 -9.54631 -78.1035
rradius 23.6193
rwrist -5.48737
rhand -17.2757 -4.81086
rfingers 7.12502
rthumb 8.96932 -34.6002
lclavicle 2.5842e-014 -9.54166e-015
lhumerus -44.0818 7.59004 81.4152
lradius 28.2731
lwrist 9.534
lhand -14.8887 1.01862
lfingers 7.12502
lthumb 11.2721 30.6957
rfemur 5.27386 -1.68169 28.4931
rtibia 17.5573
rfoot -13.723 -31.0103
rtoes -11.8915
lfemur -46.3718 0.746757 -17.7936
ltibia 36.1042
lfoot -9.09553 6.45307
ltoes -19.0708
136
root -1.6342 17.4437 -25.2256 11.0043 6.93015 -3.05109
lowerback 8.9465 1.11437 4.11625
upperback -1.82938 2.18949 3.30052
thorax -6.93818 0.979502 0.83391
lowerneck -20.1438 -0.708402 7.11003
upperneck 18.0438 -0.389337 -12.3417
head 8.92684 -1.05781 -5.52459
rclavicle -9.93923e-016 -7.95139e-016
rhumerus -28.235 -9.18211 -78.3371
rradius 24.3074
rwrist -6.21187
rhand -17.2212 -4.47639
rfingers 7.12502
rthumb 9.02189 -34.2635
lclavicle -9.93923e-016 -7.95139e-016
lhumerus -44.1731 7.76 81.0699
lradius 27.7451
lwrist 8.98838
lhand -14.7148 1.00937
lfingers 7.12502
lthumb 11.4398 30.6773
rfemur 5.26181 -1.80361 28.7734
rtibia 17.9818
rfoot -13.1368 -30.9588
rtoes -12.5178
lfemur -46.7434 0.334949 -17.4707
ltibia 33.9761
lfoot -8.46982 6.36165
ltoes -19.1725
137
root -1.63636 17.4351 -25.1022 11.0918 6.98028 -3.267
lowerback 9.26054 1.22636 4.25758
upperback -1.64653 2.36932 3.34739
thorax -6.91776 1.06402 0.771749
lowerneck -20.4722 -0.759554 7.18173
upperneck 17.7514 -0.525393 -12.3292
head 8.8707 -1.12188 -5.54512
rclavicle 1.25234e-014 2.06736e-014
rhumerus -27.3554 -8.9621 -78.5256
rradius 24.9751
rwrist -6.79863
rhand -17.1382 -4.09895
rfingers 7.12502
rthumb 9.10194 -33.8826
lclavicle 1.25234e-014 2.06736e-014
lhumerus -44.1488 7.95203 80.7025
lradius 27.1615
lwrist 8.3516
lhand -14.5323 0.985747
lfingers 7.12502
lthumb 11.6158 30.6438
rfemur 5.21104 -1.93889 29.0398
rtibia 18.5602
rfoot -12.557 -30.8522
rtoes -13.1671
lfemur -47.0604 -0.0886246 -17.0899
ltibia 31.9566
lfoot -8.02489 6.51359
ltoes -19.1088
138
root -1.63853 17.4242 -24.9756 11.1451 6.98783 -3.47189
lowerback 9.58558 1.358 4.36639
upperback -1.40038 2.56809 3.38266
thorax -6.83554 1.16041 0.711795
lowerneck -20.9855 -0.805685 7.24176
upperneck 17.5164 -0.663454 -12.2826
head 8.86699 -1.18928 -5.55956
rclavicle -1.94809e-014 2.70347e-014
rhumerus -26.3599 -8.87176 -78.685
rradius 25.6221
rwrist -7.28527
rhand -17.0701 -3.76481
rfingers 7.12502
rthumb 9.16772 -33.5455
lclavicle -1.94809e-014 2.70347e-014
lhumerus -44.0117 8.17192 80.3178
lradius 26.5639
lwrist 7.6435
lhand -14.3149 0.929678
lfingers 7.12502
lthumb 11.8255 30.5758
rfemur 5.15332 -2.06254 29.2699
rtibia 19.242
rfoot -11.9549 -30.6932
rtoes -13.8087
lfemur -47.3263 -0.492254 -16.69
ltibia 30.0788
lfoot -7.74828 6.90764
ltoes -18.8332
139
root -1.64038 17.4108 -24.8451 11.174 6.96271 -3.67486
lowerback 9.91596 1.4947 4.45684
upperback -1.12676 2.76976 3.41157
thorax -6.72661 1.25965 0.654173
lowerneck -21.6117 -0.822474 7.32461
upperneck 17.3468 -0.769621 -12.2351
head 8.90852 -1.24326 -5.58005
rclavicle 1.86858e-014 2.3059e-014
rhumerus -25.3054 -8.80254 -78.8517
rradius 26.2834
rwrist -7.79939
rhand -17.0879 -3.58816
rfingers 7.12502
rthumb 9.15053 -33.3696
lclavicle 1.86858e-014 2.3059e-014
lhumerus -43.8527 8.43393 79.9033
lradius 25.9931
lwrist 6.92165
lhand -14.0906 0.902655
lfingers 7.12502
lthumb 12.0418 30.5362
rfemur 5.1098 -2.18021 29.4715
rtibia 19.9721
rfoot -11.3321 -30.464
rtoes -14.4258
lfemur -47.5666 -0.831744 -16.3036
ltibia 28.3723
lfoot -7.57484 7.47372
ltoes -18.4298
140
root -1.64198 17.3953 -24.7103 11.1795 6.90826 -3.85388
lowerback 10.2453 1.62161 4.49757
upperback -0.849987 2.952 3.43952
thorax -6.6156 1.35147 0.625613
lowerneck -22.1774 -0.850058 7.33919
upperneck 17.1891 -0.88026 -12.1191
head 8.94285 -1.2948 -5.56412
rclavicle 1.86858e-014 7.95139e-016
rhumerus -24.2583 -8.69584 -79.02
rradius 26.955
rwrist -8.32678
rhand -17.1872 -3.52437
rfingers 7.12502
rthumb 9.05467 -33.31
lclavicle 1.86858e-014 7.95139e-016
lhumerus -43.7352 8.77935 79.4393
lradius 25.4361
lwrist 6.1953
lhand -13.8481 0.885309
lfingers 7.12502
lthumb 12.2755 30.505
rfemur 5.11167 -2.28553 29.6242
rtibia 20.6986
rfoot -10.6843 -30.1699
rtoes -15.0092
lfemur -47.7823 -1.08334 -15.9857
ltibia 26.8583
lfoot -7.51423 8.15391
ltoes -18.0896
141
root -1.64272 17.3784 -24.5693 11.1739 6.82722 -3.98848
lowerback 10.5221 1.72898 4.47203
upperback -0.596412 3.09726 3.46411
thorax -6.50285 1.42747 0.637027
lowerneck -22.5727 -0.852986 7.36055
upperneck 17.0274 -0.948744 -12.0101
head 8.94985 -1.32241 -5.54163
rclavicle -2.64384e-014 2.54444e-014
rhumerus -23.2879 -8.50423 -79.1904
rradius 27.6308
rwrist -8.86963
rhand -17.3806 -3.55286
rfingers 7.12502
rthumb 8.86807 -33.3465
lclavicle -2.64384e-014 2.54444e-014
lhumerus -43.7481 9.19447 78.923
lradius 24.9288
lwrist 5.52436
lhand -13.5881 0.970118
lfingers 7.12502
lthumb 12.5262 30.5747
rfemur 5.17837 -2.38861 29.7023
rtibia 21.3778
rfoot -10.0544 -29.8125
rtoes -15.5396
lfemur -47.9799 -1.23511 -15.7799
ltibia 25.5549
lfoot -7.56277 8.87574
ltoes -17.8045
142
root -1.64337 17.3592 -24.4221 11.1748 6.74804 -4.08874
lowerback 10.7476 1.81575 4.38277
upperback -0.386945 3.20627 3.4935
thorax -6.41234 1.48725 0.695564
lowerneck -22.7186 -0.872907 7.35317
upperneck 16.7688 -1.02805 -11.8861
head 8.87863 -1.34888 -5.49906
rclavicle 7.95139e-015 8.74653e-015
rhumerus -22.4354 -8.22164 -79.3509
rradius 28.3241
rwrist -9.47281
rhand -17.6687 -3.67204
rfingers 7.12502
rthumb 8.59005 -33.4773
lclavicle 7.95139e-015 8.74653e-015
lhumerus -43.8929 9.67286 78.3536
lradius 24.4323
lwrist 4.86975
lhand -13.3353 1.07701
lfingers 7.12502
lthumb 12.77 30.6665
rfemur 5.31567 -2.48711 29.7358
rtibia 21.9597
rfoot -9.45575 -29.4219
rtoes -16.0228
lfemur -48.1888 -1.27336 -15.6972
ltibia 24.4826
lfoot -7.73366 9.53828
ltoes -17.6641
